{
	"asset":{
		"generator":"Khronos glTF Blender I/O v5.0.21",
		"version":"2.0"
	},
	"extensionsUsed":[
		"KHR_materials_transmission",
		"KHR_materials_emissive_strength",
		"KHR_materials_specular",
		"KHR_materials_ior"
	],
	"scene":0,
	"scenes":[
		{
			"name":"Scene",
			"nodes":[
				0,
				4
			]
		}
	],
	"nodes":[
		{
			"mesh":0,
			"name":"Plane",
			"scale":[
				404,
				404,
				404
			],
			"translation":[
				0.11477772146463394,
				0.028864502906799316,
				-0.790235698223114
			]
		},
		{
			"mesh":1,
			"name":"Smooth Podium.001",
			"scale":[
				1.2163617610931396,
				1.2163618803024292,
				1.2163617610931396
			]
		},
		{
			"mesh":2,
			"name":"Smooth Podium.002",
			"scale":[
				1.2163617610931396,
				1.2163618803024292,
				1.2163617610931396
			]
		},
		{
			"mesh":3,
			"name":"Smooth Podium.003",
			"scale":[
				1.2163617610931396,
				1.2163618803024292,
				1.2163617610931396
			]
		},
		{
			"children":[
				1,
				2,
				3
			],
			"mesh":4,
			"name":"Smooth Podium",
			"rotation":[
				0,
				0.5591928362846375,
				0,
				0.829037606716156
			],
			"scale":[
				200,
				200,
				200
			]
		}
	],
	"materials":[
		{
			"doubleSided":true,
			"name":"water",
			"pbrMetallicRoughness":{
				"baseColorFactor":[
					0.007417088840156794,
					0.048028793185949326,
					0.09668809920549393,
					1
				],
				"metallicFactor":0,
				"roughnessFactor":0
			}
		},
		{
			"doubleSided":true,
			"name":"Rubber"
		},
		{
			"doubleSided":true,
			"emissiveFactor":[
				1,
				1,
				1
			],
			"extensions":{
				"KHR_materials_emissive_strength":{
					"emissiveStrength":250
				}
			},
			"name":"Glow in Dark AO Shader"
		},
		{
			"doubleSided":true,
			"extensions":{
				"KHR_materials_transmission":{
					"transmissionFactor":0.9800000190734863
				},
				"KHR_materials_specular":{
					"specularColorFactor":[
						0.0,
						0.0010661225533112884,
						0.04311148449778557
					]
				},
				"KHR_materials_ior":{
					"ior":55.44999694824219
				}
			},
			"name":"Brown Plastic Glass",
			"pbrMetallicRoughness":{
				"metallicFactor":0
			}
		}
	],
	"meshes":[
		{
			"name":"Plane.001",
			"primitives":[
				{
					"attributes":{
						"POSITION":0,
						"NORMAL":1,
						"TEXCOORD_0":2
					},
					"indices":3,
					"material":0
				}
			]
		},
		{
			"name":"SM_SmoothPodium01.002",
			"primitives":[
				{
					"attributes":{
						"POSITION":4,
						"NORMAL":5,
						"TEXCOORD_0":6
					},
					"indices":7,
					"material":1
				},
				{
					"attributes":{
						"POSITION":8,
						"NORMAL":9,
						"TEXCOORD_0":10
					},
					"indices":11,
					"material":2
				}
			]
		},
		{
			"name":"SM_SmoothPodium01.003",
			"primitives":[
				{
					"attributes":{
						"POSITION":12,
						"NORMAL":13,
						"TEXCOORD_0":14
					},
					"indices":15,
					"material":1
				},
				{
					"attributes":{
						"POSITION":16,
						"NORMAL":17,
						"TEXCOORD_0":18
					},
					"indices":19,
					"material":2
				}
			]
		},
		{
			"name":"SM_SmoothPodium01.004",
			"primitives":[
				{
					"attributes":{
						"POSITION":20,
						"NORMAL":21,
						"TEXCOORD_0":22
					},
					"indices":23,
					"material":1
				},
				{
					"attributes":{
						"POSITION":24,
						"NORMAL":25,
						"TEXCOORD_0":26
					},
					"indices":27,
					"material":2
				}
			]
		},
		{
			"name":"SM_SmoothPodium01.001",
			"primitives":[
				{
					"attributes":{
						"POSITION":28,
						"NORMAL":29,
						"TEXCOORD_0":30
					},
					"indices":31,
					"material":1
				},
				{
					"attributes":{
						"POSITION":32,
						"NORMAL":33,
						"TEXCOORD_0":34
					},
					"indices":35,
					"material":3
				}
			]
		}
	],
	"accessors":[
		{
			"bufferView":0,
			"componentType":5126,
			"count":4,
			"max":[
				1,
				0,
				1
			],
			"min":[
				-1,
				0,
				-1
			],
			"type":"VEC3"
		},
		{
			"bufferView":1,
			"componentType":5126,
			"count":4,
			"type":"VEC3"
		},
		{
			"bufferView":2,
			"componentType":5126,
			"count":4,
			"type":"VEC2"
		},
		{
			"bufferView":3,
			"componentType":5123,
			"count":6,
			"type":"SCALAR"
		},
		{
			"bufferView":4,
			"componentType":5126,
			"count":290,
			"max":[
				0.04991135746240616,
				0.014296409673988819,
				0.042083632200956345
			],
			"min":[
				-0.04993081092834473,
				0.01002591848373413,
				-0.05740174651145935
			],
			"type":"VEC3"
		},
		{
			"bufferView":5,
			"componentType":5126,
			"count":290,
			"type":"VEC3"
		},
		{
			"bufferView":6,
			"componentType":5126,
			"count":290,
			"type":"VEC2"
		},
		{
			"bufferView":7,
			"componentType":5123,
			"count":864,
			"type":"SCALAR"
		},
		{
			"bufferView":8,
			"componentType":5126,
			"count":1611,
			"max":[
				0.050290677696466446,
				0.014296409673988819,
				0.04251842945814133
			],
			"min":[
				-0.05025700852274895,
				0.01002591848373413,
				-0.0575699582695961
			],
			"type":"VEC3"
		},
		{
			"bufferView":9,
			"componentType":5126,
			"count":1611,
			"type":"VEC3"
		},
		{
			"bufferView":10,
			"componentType":5126,
			"count":1611,
			"type":"VEC2"
		},
		{
			"bufferView":11,
			"componentType":5123,
			"count":6912,
			"type":"SCALAR"
		},
		{
			"bufferView":12,
			"componentType":5126,
			"count":145,
			"max":[
				0.05559574440121651,
				0.009912186302244663,
				0.04694442078471184
			],
			"min":[
				-0.05574892833828926,
				0.009899793192744255,
				-0.0640038400888443
			],
			"type":"VEC3"
		},
		{
			"bufferView":13,
			"componentType":5126,
			"count":145,
			"type":"VEC3"
		},
		{
			"bufferView":14,
			"componentType":5126,
			"count":145,
			"type":"VEC2"
		},
		{
			"bufferView":15,
			"componentType":5123,
			"count":432,
			"type":"SCALAR"
		},
		{
			"bufferView":16,
			"componentType":5126,
			"count":1756,
			"max":[
				0.05654893070459366,
				0.009912186302244663,
				0.04802272468805313
			],
			"min":[
				-0.05670136585831642,
				0.005640079267323017,
				-0.06479251384735107
			],
			"type":"VEC3"
		},
		{
			"bufferView":17,
			"componentType":5126,
			"count":1756,
			"type":"VEC3"
		},
		{
			"bufferView":18,
			"componentType":5126,
			"count":1756,
			"type":"VEC2"
		},
		{
			"bufferView":19,
			"componentType":5123,
			"count":7344,
			"type":"SCALAR"
		},
		{
			"bufferView":20,
			"componentType":5126,
			"count":145,
			"max":[
				0.062286827713251114,
				0.005516625940799713,
				0.052740082144737244
			],
			"min":[
				-0.06256306171417236,
				0.00550423189997673,
				-0.07166752219200134
			],
			"type":"VEC3"
		},
		{
			"bufferView":21,
			"componentType":5126,
			"count":145,
			"type":"VEC3"
		},
		{
			"bufferView":22,
			"componentType":5126,
			"count":145,
			"type":"VEC2"
		},
		{
			"bufferView":23,
			"componentType":5123,
			"count":432,
			"type":"SCALAR"
		},
		{
			"bufferView":24,
			"componentType":5126,
			"count":1756,
			"max":[
				0.06328422576189041,
				0.005516625940799713,
				0.05387762188911438
			],
			"min":[
				-0.0635596290230751,
				0.0012445180909708142,
				-0.07247895002365112
			],
			"type":"VEC3"
		},
		{
			"bufferView":25,
			"componentType":5126,
			"count":1756,
			"type":"VEC3"
		},
		{
			"bufferView":26,
			"componentType":5126,
			"count":1756,
			"type":"VEC2"
		},
		{
			"bufferView":27,
			"componentType":5123,
			"count":7344,
			"type":"SCALAR"
		},
		{
			"bufferView":28,
			"componentType":5126,
			"count":434,
			"max":[
				0.08478737622499466,
				0.0013871578266844153,
				0.07107860594987869
			],
			"min":[
				-0.08451204746961594,
				0.0001775291602825746,
				-0.09764591604471207
			],
			"type":"VEC3"
		},
		{
			"bufferView":29,
			"componentType":5126,
			"count":434,
			"type":"VEC3"
		},
		{
			"bufferView":30,
			"componentType":5126,
			"count":434,
			"type":"VEC2"
		},
		{
			"bufferView":31,
			"componentType":5123,
			"count":1728,
			"type":"SCALAR"
		},
		{
			"bufferView":32,
			"componentType":5126,
			"count":1317,
			"max":[
				0.08534180372953415,
				0.0013871578266844153,
				0.07182125747203827
			],
			"min":[
				-0.08506526798009872,
				0.00017752958228811622,
				-0.09793119132518768
			],
			"type":"VEC3"
		},
		{
			"bufferView":33,
			"componentType":5126,
			"count":1317,
			"type":"VEC3"
		},
		{
			"bufferView":34,
			"componentType":5126,
			"count":1317,
			"type":"VEC2"
		},
		{
			"bufferView":35,
			"componentType":5123,
			"count":6048,
			"type":"SCALAR"
		}
	],
	"bufferViews":[
		{
			"buffer":0,
			"byteLength":48,
			"byteOffset":0,
			"target":34962
		},
		{
			"buffer":0,
			"byteLength":48,
			"byteOffset":48,
			"target":34962
		},
		{
			"buffer":0,
			"byteLength":32,
			"byteOffset":96,
			"target":34962
		},
		{
			"buffer":0,
			"byteLength":12,
			"byteOffset":128,
			"target":34963
		},
		{
			"buffer":0,
			"byteLength":3480,
			"byteOffset":140,
			"target":34962
		},
		{
			"buffer":0,
			"byteLength":3480,
			"byteOffset":3620,
			"target":34962
		},
		{
			"buffer":0,
			"byteLength":2320,
			"byteOffset":7100,
			"target":34962
		},
		{
			"buffer":0,
			"byteLength":1728,
			"byteOffset":9420,
			"target":34963
		},
		{
			"buffer":0,
			"byteLength":19332,
			"byteOffset":11148,
			"target":34962
		},
		{
			"buffer":0,
			"byteLength":19332,
			"byteOffset":30480,
			"target":34962
		},
		{
			"buffer":0,
			"byteLength":12888,
			"byteOffset":49812,
			"target":34962
		},
		{
			"buffer":0,
			"byteLength":13824,
			"byteOffset":62700,
			"target":34963
		},
		{
			"buffer":0,
			"byteLength":1740,
			"byteOffset":76524,
			"target":34962
		},
		{
			"buffer":0,
			"byteLength":1740,
			"byteOffset":78264,
			"target":34962
		},
		{
			"buffer":0,
			"byteLength":1160,
			"byteOffset":80004,
			"target":34962
		},
		{
			"buffer":0,
			"byteLength":864,
			"byteOffset":81164,
			"target":34963
		},
		{
			"buffer":0,
			"byteLength":21072,
			"byteOffset":82028,
			"target":34962
		},
		{
			"buffer":0,
			"byteLength":21072,
			"byteOffset":103100,
			"target":34962
		},
		{
			"buffer":0,
			"byteLength":14048,
			"byteOffset":124172,
			"target":34962
		},
		{
			"buffer":0,
			"byteLength":14688,
			"byteOffset":138220,
			"target":34963
		},
		{
			"buffer":0,
			"byteLength":1740,
			"byteOffset":152908,
			"target":34962
		},
		{
			"buffer":0,
			"byteLength":1740,
			"byteOffset":154648,
			"target":34962
		},
		{
			"buffer":0,
			"byteLength":1160,
			"byteOffset":156388,
			"target":34962
		},
		{
			"buffer":0,
			"byteLength":864,
			"byteOffset":157548,
			"target":34963
		},
		{
			"buffer":0,
			"byteLength":21072,
			"byteOffset":158412,
			"target":34962
		},
		{
			"buffer":0,
			"byteLength":21072,
			"byteOffset":179484,
			"target":34962
		},
		{
			"buffer":0,
			"byteLength":14048,
			"byteOffset":200556,
			"target":34962
		},
		{
			"buffer":0,
			"byteLength":14688,
			"byteOffset":214604,
			"target":34963
		},
		{
			"buffer":0,
			"byteLength":5208,
			"byteOffset":229292,
			"target":34962
		},
		{
			"buffer":0,
			"byteLength":5208,
			"byteOffset":234500,
			"target":34962
		},
		{
			"buffer":0,
			"byteLength":3472,
			"byteOffset":239708,
			"target":34962
		},
		{
			"buffer":0,
			"byteLength":3456,
			"byteOffset":243180,
			"target":34963
		},
		{
			"buffer":0,
			"byteLength":15804,
			"byteOffset":246636,
			"target":34962
		},
		{
			"buffer":0,
			"byteLength":15804,
			"byteOffset":262440,
			"target":34962
		},
		{
			"buffer":0,
			"byteLength":10536,
			"byteOffset":278244,
			"target":34962
		},
		{
			"buffer":0,
			"byteLength":12096,
			"byteOffset":288780,
			"target":34963
		}
	],
	"buffers":[
		{
			"byteLength":300876,
			"uri":"Untitled.bin"
		}
	]
}
